#!OML:ASF H:\Terrain\Patient Classification 1\Terrain2\Thursday\justin.ASF
:FULLY-SPECIFIED
:DEGREES
2314
root -8.90053 17.4198 22.0157 1397.85 77.0604 -764.952
lowerback 5.38529 2.66108 7.62447
upperback 2.60441 4.05332 3.46105
thorax -0.0475902 2.12363 -0.890521
lowerneck -14.0632 -1.58507 -8.57984
upperneck 35.568 0.608071 2.74749
head 14.6441 -0.0846299 2.86449
rclavicle 1.11816e-014 3.06128e-014
rhumerus -29.2251 -6.62278 -82.9244
rradius 26.3484
rwrist -11.1084
rhand -20.5686 11.6701
rfingers 7.12502
rthumb 5.79088 -18.2307
lclavicle 1.11816e-014 3.06128e-014
lhumerus -38.5056 13.1219 82.5286
lradius 24.1464
lwrist -4.30163
lhand -14.1252 18.9726
lfingers 7.12502
lthumb 12.0083 48.6081
rfemur 21.4895 0.428643 30.1134
rtibia 9.54166e-015
rfoot -10.6295 2.60275
rtoes 2.85207
lfemur -31.8278 1.90699 -9.83808
ltibia 26.5549
lfoot -4.36515 -0.76789
ltoes -5.63923
2315
root -8.78481 17.4274 22.0033 1397.19 76.9708 -765.451
lowerback 5.48893 2.69271 7.70819
upperback 2.66521 4.10791 3.44877
thorax -0.0312858 2.15425 -0.954724
lowerneck -14.0172 -1.61007 -8.39626
upperneck 35.472 0.498641 2.75114
head 14.5941 -0.10546 2.81216
rclavicle -6.01324e-015 -1.15295e-014
rhumerus -29.3362 -7.21637 -82.9452
rradius 26.2556
rwrist -10.7436
rhand -20.5058 12.0477
rfingers 7.12502
rthumb 5.85148 -17.8515
lclavicle -6.01324e-015 -1.15295e-014
lhumerus -38.3872 12.7642 82.6282
lradius 24.3823
lwrist -3.9751
lhand -14.459 19.3024
lfingers 7.12502
lthumb 11.6865 48.9565
rfemur 22.0407 0.400869 30.1251
rtibia -3.18055e-015
rfoot -10.1187 2.75349
rtoes 3.29442
lfemur -31.4417 2.14896 -9.83386
ltibia 26.7371
lfoot -3.86166 -1.05713
ltoes -5.73871
2316
root -8.66869 17.4431 21.9889 1397.39 77.0854 -765.295
lowerback 5.42328 2.74547 7.60672
upperback 2.59634 4.1647 3.34537
thorax -0.0616957 2.17769 -1.0066
lowerneck -13.9022 -1.65488 -8.2708
upperneck 35.4044 0.377023 2.75881
head 14.5434 -0.137449 2.7706
rclavicle -7.9166e-014 -1.39149e-015
rhumerus -29.6541 -7.55827 -83.0001
rradius 26.3057
rwrist -10.7166
rhand -20.5114 12.1075
rfingers 7.12502
rthumb 5.84605 -17.7918
lclavicle -7.9166e-014 -1.39149e-015
lhumerus -38.3436 12.4249 82.6998
lradius 24.5598
lwrist -3.56734
lhand -14.5713 19.7614
lfingers 7.12502
lthumb 11.5782 49.4216
rfemur 22.3643 0.359215 29.9017
rtibia 9.22361e-014
rfoot -9.57372 2.70661
rtoes 2.68707
lfemur -31.2393 1.91593 -9.98601
ltibia 26.931
lfoot -3.42606 -0.787697
ltoes -5.52338
2317
root -8.55422 17.4601 21.9686 1399.15 77.5035 -763.741
lowerback 5.19728 2.76771 6.95201
upperback 2.4759 4.13878 3.26312
thorax -0.104636 2.15239 -0.723426
lowerneck -13.8138 -1.66737 -8.40452
upperneck 35.3341 0.385236 2.76233
head 14.4916 -0.149525 2.79364
rclavicle -3.10104e-014 -5.56597e-015
rhumerus -30.0017 -7.21919 -82.9871
rradius 26.4284
rwrist -10.871
rhand -20.4246 11.8754
rfingers 7.12502
rthumb 5.92988 -18.0217
lclavicle -3.10104e-014 -5.56597e-015
lhumerus -38.3744 12.4467 82.8363
lradius 24.7323
lwrist -3.40584
lhand -14.2623 19.7961
lfingers 7.12502
lthumb 11.8762 49.4393
rfemur 22.4538 0.339944 29.1977
rtibia 2.8625e-014
rfoot -8.87255 2.69398
rtoes 1.63751
lfemur -31.1913 1.54437 -10.5924
ltibia 27.0673
lfoot -3.20103 -0.395966
ltoes -3.57938
2318
root -8.43662 17.4779 21.9493 1399.55 77.6594 -763.509
lowerback 5.07062 2.8734 6.93317
upperback 2.36063 4.26322 3.06071
thorax -0.131112 2.20889 -0.922307
lowerneck -13.7321 -1.7905 -8.28744
upperneck 35.2469 0.104347 2.89362
head 14.4497 -0.235246 2.77925
rclavicle 4.19933e-014 5.96354e-015
rhumerus -30.3204 -7.80692 -83.0006
rradius 26.4393
rwrist -10.5268
rhand -20.1235 11.9845
rfingers 7.12502
rthumb 6.22055 -17.9042
lclavicle 4.19933e-014 5.96354e-015
lhumerus -38.2543 11.8292 82.8729
lradius 24.933
lwrist -3.27576
lhand -14.2913 19.6766
lfingers 7.12502
lthumb 11.8482 49.3214
rfemur 22.613 0.315627 28.8569
rtibia -7.31528e-014
rfoot -8.07808 2.85744
rtoes 2.63151
lfemur -31.0588 1.94728 -10.986
ltibia 27.189
lfoot -3.01343 -0.895406
ltoes -1.3467
2319
root -8.31661 17.4931 21.934 1397.36 77.4113 -765.748
lowerback 5.1386 2.86714 7.66793
upperback 2.28026 4.30057 2.98868
thorax -0.188009 2.22994 -1.40654
lowerneck -13.8117 -1.83446 -8.14137
upperneck 35.2923 -0.0481663 3.03585
head 14.4962 -0.2632 2.79051
rclavicle 4.76089e-014 4.31363e-014
rhumerus -30.5758 -8.47894 -83.1452
rradius 26.4509
rwrist -10.2067
rhand -20.027 11.9928
rfingers 7.12502
rthumb 6.31378 -17.8931
lclavicle 4.76089e-014 4.31363e-014
lhumerus -38.0915 11.6486 82.647
lradius 25.0937
lwrist -3.26426
lhand -14.491 19.4914
lfingers 7.12502
lthumb 11.6556 49.1472
rfemur 22.9502 0.203248 29.2311
rtibia -3.18055e-015
rfoot -7.30564 2.99652
rtoes 3.80253
lfemur -30.7626 2.5746 -10.6851
ltibia 27.3265
lfoot -2.84013 -1.65247
ltoes -0.661948
2320
root -8.19499 17.5022 21.9154 1396.12 77.3552 -766.904
lowerback 5.24251 2.76712 7.95986
upperback 2.29351 4.19409 2.99582
thorax -0.219494 2.17913 -1.56063
lowerneck -14.1063 -1.78511 -8.11495
upperneck 35.5062 0.0650028 3.01035
head 14.6552 -0.218908 2.80335
rclavicle 1.15047e-014 -6.75868e-015
rhumerus -30.7752 -8.29234 -83.3568
rradius 26.5936
rwrist -10.4466
rhand -20.1354 11.9494
rfingers 7.12502
rthumb 6.20907 -17.9396
lclavicle 1.15047e-014 -6.75868e-015
lhumerus -38.0318 11.9561 82.5063
lradius 25.3817
lwrist -3.14305
lhand -14.5414 19.8177
lfingers 7.12502
lthumb 11.607 49.4762
rfemur 23.3844 0.067866 29.3298
rtibia -3.18055e-015
rfoot -6.4556 3.0208
rtoes 1.34379
lfemur -30.3703 3.11261 -10.7068
ltibia 27.5364
lfoot -2.50049 -2.42376
ltoes -1.68961
2321
root -8.07111 17.5127 21.8986 1397.53 77.6769 -765.431
lowerback 5.1939 2.81977 7.39511
upperback 2.28237 4.2252 2.877
thorax -0.234504 2.18807 -1.37263
lowerneck -14.146 -1.78831 -8.01956
upperneck 35.6281 0.0576024 2.98369
head 14.7215 -0.212559 2.77946
rclavicle 6.72886e-014 4.53229e-014
rhumerus -31.1598 -7.93945 -83.4868
rradius 26.95
rwrist -11.0016
rhand -20.0996 11.9353
rfingers 7.12502
rthumb 6.24362 -17.9527
lclavicle 6.72886e-014 4.53229e-014
lhumerus -38.113 11.8047 82.6343
lradius 25.8218
lwrist -2.80369
lhand -14.6085 20.2367
lfingers 7.12502
lthumb 11.5423 49.8989
rfemur 23.7662 0.0749176 28.7088
rtibia 3.18055e-015
rfoot -5.45662 3.13402
rtoes -1.23097
lfemur -29.9733 3.3591 -11.3684
ltibia 27.6951
lfoot -2.21833 -2.94345
ltoes -2.70012
2322
root -7.95004 17.5215 21.8834 1397.76 77.8361 -765.169
lowerback 5.19311 2.80823 7.04934
upperback 2.2146 4.19582 2.89542
thorax -0.333777 2.16586 -1.16609
lowerneck -13.9391 -1.76541 -8.13855
upperneck 35.5883 0.0668553 3.11224
head 14.6542 -0.203588 2.85281
rclavicle -4.51987e-014 3.18055e-015
rhumerus -31.5887 -7.44006 -83.5781
rradius 27.2956
rwrist -11.5317
rhand -19.9964 11.7458
rfingers 7.12502
rthumb 6.3433 -18.1392
lclavicle -4.51987e-014 3.18055e-015
lhumerus -38.2506 11.3747 82.9269
lradius 26.278
lwrist -2.13387
lhand -14.2605 19.6119
lfingers 7.12502
lthumb 11.8779 49.255
rfemur 22.5213 -0.0156236 28.3549
rtibia 3.21993
rfoot -5.97098 3.3999
rtoes -1.35236
lfemur -29.5009 3.42744 -11.6047
ltibia 27.6049
lfoot -2.30584 -3.33815
ltoes -0.761335
2323
root -7.83211 17.5368 21.8619 1397.93 78.136 -764.94
lowerback 5.2385 2.71261 6.70847
upperback 2.16725 4.05684 2.87601
thorax -0.441048 2.0897 -0.99808
lowerneck -13.7886 -1.74177 -8.25503
upperneck 35.5378 0.124053 3.11164
head 14.5932 -0.192859 2.8791
rclavicle 1.68967e-015 -2.52457e-014
rhumerus -31.7566 -7.28778 -83.5761
rradius 27.2491
rwrist -11.4409
rhand -19.8905 11.6915
rfingers 7.12502
rthumb 6.44554 -18.1904
lclavicle 1.68967e-015 -2.52457e-014
lhumerus -38.3329 10.7644 83.3374
lradius 26.8194
lwrist -1.48067
lhand -14.0141 19.3707
lfingers 7.12502
lthumb 12.1155 48.9999
rfemur 20.804 -0.231353 27.8897
rtibia 7.30655
rfoot -6.78947 3.61558
rtoes -0.889516
lfemur -29.0494 3.91299 -12.0706
ltibia 27.4526
lfoot -2.52869 -4.22437
ltoes 4.24303
